<svg width="70" height="70" viewBox="0 0 70 70" fill="none" xmlns="http://www.w3.org/2000/svg">
<path d="M65.2735 20.6523C68.9975 15.8289 64.2952 9.79049 57.1718 9.86743C57.2648 4.35826 49.3849 0.758528 43.1176 3.64323C41.4768 1.41936 38.3993 0 34.9937 0C31.5998 0 28.5282 1.41652 26.886 3.63527C20.6047 0.760877 12.7389 4.36588 12.8318 9.86742C5.68724 9.79931 1.01834 15.8105 4.74189 20.6495C1.84768 21.9014 0 24.2615 0 26.8822C0 29.5052 1.84178 31.8676 4.73007 33.1229C1.09441 37.8155 5.41341 43.9067 12.8347 43.9067C12.8155 45.5029 13.5309 47.0751 14.8293 48.3608C14.8213 48.3593 14.8128 48.3583 14.8047 48.3569C9.79456 54.066 4.37587 59.6471 1.36377 65.9027C1.30317 65.9957 1.42429 66.0771 1.53026 66.019C4.96621 64.4958 8.70481 63.054 12.61 61.6587C12.6856 61.6355 12.7765 61.6587 12.7765 61.7284C13.4576 64.4027 14.2749 67.1236 15.4102 69.9374C15.4405 70.0188 15.6069 70.0188 15.6524 69.949C18.7082 63.6246 24.204 57.9808 29.2523 52.2308C31.6522 53.6711 34.8235 54.2486 38.0641 53.3732C42.8316 58.7302 47.8035 64.0405 50.6624 69.949C50.6927 70.0188 50.8591 70.0188 50.8895 69.9374C52.0247 67.1236 52.8571 64.4027 53.5231 61.7284C53.5231 61.6587 53.6291 61.6355 53.6896 61.6587C57.61 63.054 61.3486 64.4958 64.7845 66.019C64.8753 66.0771 64.9964 65.9957 64.951 65.9027C62.1906 60.2514 57.5073 55.136 52.9181 49.984C55.6236 48.6282 57.2084 46.3355 57.1703 43.9061C64.3164 44.0159 69.0051 37.905 65.2809 33.1201C71.5726 30.3814 71.576 23.3844 65.2735 20.6523ZM62.6897 31.4747L61.9181 31.6059C61.829 31.9469 61.0332 32.715 61.9432 33.551C65.9645 36.9724 61.9181 42.4401 55.9907 41.4784C54.5503 41.2038 53.9768 42.3404 53.6774 42.5463L54.0381 43.1044C55.1361 47.6792 48.0693 50.6382 43.6334 47.5556C42.5888 46.8839 41.4707 47.5438 41.1191 47.6021L40.9624 48.1773C38.9618 52.5833 30.9353 52.4689 29.0278 48.1733L28.852 47.5805L28.0271 47.3444C27.4625 47.1831 26.8343 47.2711 26.3332 47.5942C23.8899 49.2785 19.8593 49.3251 17.4022 47.1434C16.1251 46.0079 15.5989 44.475 15.9847 43.0317C16.1355 42.6298 16.0172 42.1938 15.6521 41.8718L14.848 41.2609L13.9744 41.4846C8.06225 42.4018 4.03037 36.9825 8.10174 33.5157C8.49196 33.1558 8.60431 32.6664 8.39589 32.2383L7.99827 31.5508L7.25476 31.4588C4.72121 30.7781 3.02726 28.9505 3.02726 26.8822C3.02726 24.7929 4.76852 22.9477 7.373 22.2886C8.66343 21.9532 8.48691 20.9107 8.59247 20.6801L8.06477 20.2293C3.99962 16.7458 8.19425 11.3331 14.0114 12.2985C15.4522 12.5718 16.0349 11.4193 16.3261 11.2164L15.9655 10.6589C14.8902 6.19815 21.8449 3.10112 26.3332 6.19637L26.5032 6.29687C26.9865 6.54611 27.5867 6.59096 28.1143 6.41438L28.9421 6.09077L29.053 5.56392C29.9561 3.6228 32.3286 2.32549 34.9937 2.32549C37.6987 2.32549 40.0977 3.65402 40.9772 5.63431L41.1472 6.18389C41.5429 6.26265 42.4686 6.84563 43.5019 6.30993L43.6748 6.2066C45.7043 4.79802 48.6458 4.55843 50.999 5.61046C53.3094 6.64376 54.5436 8.74385 54.0204 10.7349C53.6504 11.7185 54.8743 12.2139 55.16 12.5188L56.0365 12.2911C61.9058 11.3548 65.927 16.8104 61.9964 20.1834C61.0332 20.9233 61.7934 21.8127 61.8368 22.087L62.6438 22.2914C68.3901 23.7461 68.4133 29.9876 62.6897 31.4747Z" fill="#FAC564"/>
<path d="M34.9959 10.5332C23.235 10.5332 13.6992 17.8585 13.6992 26.893C13.6992 35.9275 23.235 43.2528 34.9959 43.2528C46.7568 43.2528 56.3077 35.9275 56.3077 26.893C56.3077 17.8585 46.7568 10.5332 34.9959 10.5332ZM48.7093 24.5093L42.004 29.5906C41.9737 29.6138 41.9737 29.6371 41.9737 29.6604L43.6236 36.7879C43.6387 36.8578 43.5631 36.8926 43.4873 36.8693L35.117 33.5323C35.0867 33.5206 35.0564 33.5206 35.0262 33.5323L26.7013 36.9507C26.6407 36.974 26.5499 36.9275 26.565 36.8693L28.1089 29.7185C28.1089 29.6952 28.0938 29.6719 28.0786 29.6604L21.2825 24.6373C21.2371 24.5907 21.2522 24.521 21.343 24.5093L30.6669 23.428C30.6973 23.4164 30.7123 23.4048 30.7275 23.3815L34.8597 16.8702C34.8899 16.812 34.9959 16.812 35.0262 16.8702L39.2492 23.3466C39.2643 23.3699 39.2946 23.3815 39.3248 23.3815L48.6639 24.3815C48.7396 24.3931 48.7698 24.4629 48.7093 24.5093Z" fill="#FAC564"/>
</svg>
