<svg width="70" height="70" viewBox="0 0 70 70" fill="none" xmlns="http://www.w3.org/2000/svg">
<path d="M54.3501 16.3768C53.0617 16.3768 51.7732 16.5781 50.5317 16.9521C50.11 12.6082 48.517 8.60946 45.9636 5.50254C42.7074 1.59011 38.3034 -0.394865 33.6885 0.0654197C30.5025 0.381866 27.4806 1.90656 25.0209 4.40936C21.4836 8.03411 19.4455 13.2123 19.3518 18.7933C19.3518 18.9371 19.3518 19.0522 19.3518 19.196C19.3518 21.555 19.6798 23.8276 20.3591 26.014C20.5934 26.7907 21.343 27.1647 21.9521 26.7907C22.4909 26.4743 22.772 25.6976 22.5377 25.0071C21.9755 23.166 21.671 21.2098 21.671 19.196C21.671 19.1097 21.671 18.9946 21.671 18.9083V18.8508C21.8115 10.0191 27.7851 2.8559 34.9769 2.8559C41.8875 2.8559 47.6737 9.50127 48.2359 17.8727C46.479 18.7933 44.8626 20.0878 43.5039 21.6988C43.012 22.2742 43.0354 23.2523 43.5508 23.7989C44.0193 24.2879 44.6986 24.2879 45.1437 23.7701C46.5024 22.1879 48.1188 20.9509 49.8757 20.1741C51.3047 19.5412 52.8274 19.2248 54.3501 19.2248C61.7527 19.2248 67.7731 26.7044 67.656 35.8238C67.5388 44.7994 61.4481 51.905 54.1627 51.905H42.3795C42.9183 51.042 43.3868 50.1214 43.8084 49.1146C44.113 48.3666 43.8553 47.446 43.2228 47.1296C42.6606 46.8419 42.0046 47.1296 41.7235 47.7912C39.4512 53.1708 34.93 56.5942 29.9169 56.5942C24.9975 56.5942 20.5231 53.2571 18.204 48.0214C17.9229 47.3597 17.2669 47.1008 16.7047 47.3885C16.0722 47.7337 15.8145 48.6543 16.1425 49.4022C16.5407 50.294 16.9624 51.1283 17.4543 51.905H15.8614C8.5525 51.905 2.46178 44.7994 2.36807 35.8238C2.25094 26.7044 8.27139 19.2248 15.674 19.2248C15.7911 19.2248 15.9317 19.2248 16.0488 19.2248C16.611 19.2536 17.1029 18.7357 17.2201 18.0453C17.3606 17.1823 16.8453 16.3768 16.1191 16.348C15.9785 16.348 15.8145 16.348 15.6505 16.348C6.93612 16.348 -0.138496 25.1222 0.00205875 35.8526C0.142614 46.3816 7.28751 54.7531 15.8848 54.7531H19.6329C22.4206 57.7161 26.0516 59.471 29.8935 59.471C33.7587 59.471 37.3663 57.7449 40.154 54.7531H53.3662V65.8287C53.3662 66.5479 52.8977 67.1232 52.312 67.1232H17.6652C17.0795 67.1232 16.611 66.5479 16.611 65.8287V58.0901C16.611 57.2846 16.0956 56.6517 15.4397 56.6517C14.7838 56.6517 14.2684 57.2846 14.2684 58.0901V65.8287C14.2684 68.1301 15.7911 70 17.6652 70H52.3355C54.2095 70 55.7322 68.1301 55.7322 65.8287V54.638C63.5799 53.6599 69.858 45.6912 69.9986 35.8238C70.1157 25.151 63.0645 16.3768 54.3501 16.3768Z" fill="#FAC564"/>
</svg>
