<svg width="10" height="20" viewBox="0 0 10 20" fill="none" xmlns="http://www.w3.org/2000/svg">
<path d="M6.59268 19.9841C6.49533 19.9881 6.43302 19.996 6.37072 19.996C5.03894 19.996 3.71106 19.9921 2.37928 20C2.19237 20 2.14174 19.9484 2.14174 19.7579C2.14564 16.5985 2.14564 13.4352 2.14564 10.2759C2.14564 10.1925 2.14564 10.1092 2.14564 10.002C1.42134 10.002 0.716511 10.002 0 10.002C0 8.87478 0 7.76742 0 6.62831C0.0739875 6.62831 0.144081 6.62831 0.21028 6.62831C0.794392 6.62831 1.3785 6.62434 1.96262 6.63228C2.11059 6.63228 2.14953 6.58862 2.14953 6.44176C2.14174 5.55667 2.14174 4.6676 2.14953 3.78251C2.15343 3.16333 2.25078 2.56004 2.53115 2.00041C2.93224 1.21057 3.56698 0.698561 4.36916 0.381038C5.02336 0.119081 5.71262 0.0238242 6.40576 0.011917C7.53505 -0.00395911 8.66433 0.00397896 9.79361 9.92264e-06C9.89875 9.92264e-06 9.98442 -0.00395912 9.98442 0.146864C9.98053 1.23835 9.98053 2.32984 9.98053 3.42132C9.98053 3.43323 9.97664 3.44514 9.96106 3.49673C9.89486 3.49673 9.82087 3.49673 9.74689 3.49673C9.04595 3.49673 8.34502 3.49276 7.64408 3.49673C7.2391 3.49673 6.91199 3.66343 6.70561 4.02462C6.6433 4.13178 6.60436 4.2707 6.60436 4.39771C6.59268 5.07244 6.60436 5.74718 6.59657 6.42192C6.59657 6.58068 6.6433 6.62434 6.79517 6.62434C7.76869 6.6164 8.74221 6.62037 9.71573 6.62037C9.79361 6.62037 9.8676 6.62037 10 6.62037C9.86371 7.75551 9.73131 8.86685 9.59502 9.99008C8.58256 9.99008 7.59735 9.99008 6.59268 9.99008C6.59268 13.328 6.59268 16.6462 6.59268 19.9841Z" fill="white"/>
</svg>
