<?xml version="1.0" encoding="UTF-8" standalone="no"?>
<!-- Created with Inkscape (http://www.inkscape.org/) -->

<svg
   width="64pt"
   height="64pt"
   viewBox="0 0 22.577778 22.577778"
   version="1.1"
   id="svg831"
   inkscape:version="1.1.2 (0a00cf5339, 2022-02-04)"
   sodipodi:docname="29 - Healthy Food.svg"
   inkscape:export-filename="/media/taufikramadhan/Data/Tr Design Studio/Project Design/TR Creative Design/Icon Design/Project Hiring/Icon Icons/025 - Healthcare And Medical/5 - Send/2 - Solid/29 - Healthy Food.png"
   inkscape:export-xdpi="576"
   inkscape:export-ydpi="576"
   xmlns:inkscape="http://www.inkscape.org/namespaces/inkscape"
   xmlns:sodipodi="http://sodipodi.sourceforge.net/DTD/sodipodi-0.dtd"
   xmlns="http://www.w3.org/2000/svg"
   xmlns:svg="http://www.w3.org/2000/svg"
   xmlns:rdf="http://www.w3.org/1999/02/22-rdf-syntax-ns#"
   xmlns:cc="http://creativecommons.org/ns#"
   xmlns:dc="http://purl.org/dc/elements/1.1/">
  <defs
     id="defs825">
    <pattern
       id="EMFhbasepattern"
       patternUnits="userSpaceOnUse"
       width="6"
       height="6"
       x="0"
       y="0" />
    <pattern
       id="EMFhbasepattern-9"
       patternUnits="userSpaceOnUse"
       width="6"
       height="6"
       x="0"
       y="0" />
    <pattern
       id="EMFhbasepattern-0"
       patternUnits="userSpaceOnUse"
       width="6"
       height="6"
       x="0"
       y="0" />
    <pattern
       id="EMFhbasepattern-7"
       patternUnits="userSpaceOnUse"
       width="6"
       height="6"
       x="0"
       y="0" />
    <pattern
       id="EMFhbasepattern-2"
       patternUnits="userSpaceOnUse"
       width="6"
       height="6"
       x="0"
       y="0" />
    <pattern
       id="EMFhbasepattern-98"
       patternUnits="userSpaceOnUse"
       width="6"
       height="6"
       x="0"
       y="0" />
    <pattern
       id="EMFhbasepattern-6"
       patternUnits="userSpaceOnUse"
       width="6"
       height="6"
       x="0"
       y="0" />
    <pattern
       id="EMFhbasepattern-01"
       patternUnits="userSpaceOnUse"
       width="6"
       height="6"
       x="0"
       y="0" />
    <pattern
       id="EMFhbasepattern-07"
       patternUnits="userSpaceOnUse"
       width="6"
       height="6"
       x="0"
       y="0" />
    <pattern
       id="EMFhbasepattern-8"
       patternUnits="userSpaceOnUse"
       width="6"
       height="6"
       x="0"
       y="0" />
    <pattern
       id="EMFhbasepattern-4"
       patternUnits="userSpaceOnUse"
       width="6"
       height="6"
       x="0"
       y="0" />
    <pattern
       id="EMFhbasepattern-40"
       patternUnits="userSpaceOnUse"
       width="6"
       height="6"
       x="0"
       y="0" />
    <pattern
       id="EMFhbasepattern-08"
       patternUnits="userSpaceOnUse"
       width="6"
       height="6"
       x="0"
       y="0" />
    <pattern
       id="EMFhbasepattern-04"
       patternUnits="userSpaceOnUse"
       width="6"
       height="6"
       x="0"
       y="0" />
    <pattern
       id="EMFhbasepattern-014"
       patternUnits="userSpaceOnUse"
       width="6"
       height="6"
       x="0"
       y="0" />
    <pattern
       id="EMFhbasepattern-27"
       patternUnits="userSpaceOnUse"
       width="6"
       height="6"
       x="0"
       y="0" />
    <pattern
       id="EMFhbasepattern-09"
       patternUnits="userSpaceOnUse"
       width="6"
       height="6"
       x="0"
       y="0" />
    <pattern
       id="EMFhbasepattern-5"
       patternUnits="userSpaceOnUse"
       width="6"
       height="6"
       x="0"
       y="0" />
    <pattern
       id="EMFhbasepattern-018"
       patternUnits="userSpaceOnUse"
       width="6"
       height="6"
       x="0"
       y="0" />
  </defs>
  <sodipodi:namedview
     id="base"
     pagecolor="#ffffff"
     bordercolor="#666666"
     borderopacity="1.0"
     inkscape:pageopacity="0.0"
     inkscape:pageshadow="2"
     inkscape:zoom="5.4760435"
     inkscape:cx="42.731582"
     inkscape:cy="42.640275"
     inkscape:document-units="pt"
     inkscape:current-layer="layer1"
     showgrid="false"
     units="pt"
     inkscape:window-width="1366"
     inkscape:window-height="719"
     inkscape:window-x="0"
     inkscape:window-y="26"
     inkscape:window-maximized="1"
     inkscape:pagecheckerboard="true"
     inkscape:showpageshadow="false"
     inkscape:object-paths="true"
     inkscape:snap-intersection-paths="true"
     inkscape:snap-smooth-nodes="true"
     inkscape:snap-midpoints="true"
     showguides="true"
     inkscape:snap-bbox="true"
     inkscape:bbox-nodes="true"
     inkscape:snap-nodes="false"
     inkscape:snap-global="true"
     inkscape:snap-others="false">
    <inkscape:grid
       type="xygrid"
       id="grid1378" />
    <sodipodi:guide
       position="0.97013831,21.607643"
       orientation="78.000048,0"
       id="guide1380"
       inkscape:locked="false" />
    <sodipodi:guide
       position="0.97013831,0.97013129"
       orientation="0,78.000005"
       id="guide1382"
       inkscape:locked="false" />
    <sodipodi:guide
       position="21.607639,0.97013129"
       orientation="-78.000048,0"
       id="guide1384"
       inkscape:locked="false" />
    <sodipodi:guide
       position="21.607639,21.607643"
       orientation="0,-78.000005"
       id="guide1386"
       inkscape:locked="false" />
  </sodipodi:namedview>
  <metadata
     id="metadata828">
    <rdf:RDF>
      <cc:Work
         rdf:about="">
        <dc:format>image/svg+xml</dc:format>
        <dc:type
           rdf:resource="http://purl.org/dc/dcmitype/StillImage" />
      </cc:Work>
    </rdf:RDF>
  </metadata>
  <g
     inkscape:label="Icon"
     inkscape:groupmode="layer"
     id="layer1"
     transform="translate(0,-274.42223)">
    <path
       id="path166631"
       style="color:#000000;display:inline;fill:#000000;stroke-width:1;stroke-linecap:round;stroke-linejoin:round;stroke-miterlimit:1.5;-inkscape-stroke:none"
       d="m 14.972662,276.99504 c -0.197563,-7.2e-4 -0.357917,0.15959 -0.357145,0.35715 v 1.59881 h 0.711514 v -1.59881 c 7.13e-4,-0.19649 -0.157887,-0.35639 -0.354369,-0.35715 z m 1.256269,0.75528 c -0.123246,0.001 -0.237077,0.0662 -0.300864,0.17163 -0.188467,0.30638 -0.369993,0.63431 -0.455122,1.02905 h 0.699705 c 0.0117,0 0.02313,3.4e-4 0.03472,7.2e-4 0.06797,-0.21803 0.181308,-0.42214 0.327272,-0.65941 0.102539,-0.16682 0.05099,-0.38514 -0.115339,-0.48847 -0.05713,-0.0355 -0.123138,-0.0541 -0.190387,-0.0535 z m -2.481965,0.001 c -0.06711,-0.001 -0.133114,0.0171 -0.190386,0.0522 -0.167314,0.10245 -0.220157,0.32092 -0.118123,0.48846 0.145811,0.23703 0.26033,0.44095 0.329353,0.65872 h 0.732364 c -0.08513,-0.39475 -0.266652,-0.72268 -0.455122,-1.02906 -0.0636,-0.10407 -0.176107,-0.16836 -0.298086,-0.17024 z m -11.3494956,0.3092 v 0.71152 h 4.2670054 v -0.71152 z m 3.9550132,5.29467 c 0.1393609,0.13901 0.1393609,0.36476 0,0.50376 -0.1387668,0.13797 -0.3629046,0.13797 -0.5016715,0 -0.064752,-0.0648 -0.1518265,-0.10488 -0.2522284,-0.10488 -0.20069,-2e-5 -0.3571486,0.15368 -0.357145,0.35437 0,0.3358 0.2071007,0.57432 0.4801339,0.73583 0.1840832,0.068 0.2782878,0.27232 0.2105338,0.4565 -0.057935,0.1558 -0.2160267,0.25072 -0.3807709,0.22861 -0.6012445,-0.0644 -1.2682294,-0.22507 -1.8177004,-0.362 -0.5897001,-0.14744 -0.9823852,0.0609 -1.2812819,0.32239 -0.2162153,0.1892 -0.3520791,0.39326 -0.4120385,0.49335 v 1.81352 c 0.7494957,-0.31372 1.4453362,-0.31914 2.1769301,-0.16467 0.0275,-0.17035 0.073631,-0.3751 0.1486959,-0.5927 -0.017539,-0.0191 -0.036593,-0.0401 -0.056979,-0.0605 -0.1051084,-0.10514 -0.2471412,-0.19413 -0.2890531,-0.2022 -0.1927032,-0.039 -0.3171827,-0.22702 -0.2779355,-0.41967 0.038759,-0.19201 0.2254292,-0.31656 0.4175988,-0.27864 0.2318401,0.0468 0.4019278,0.1649 0.5364147,0.28489 0.083144,-0.12585 0.1785512,-0.24942 0.290444,-0.36619 0.1358816,-0.1409 0.3600587,-0.14555 0.5016751,-0.0108 0.142737,0.13618 0.1474153,0.36249 0.010421,0.50445 -0.309477,0.32293 -0.4627943,0.75094 -0.5384995,1.08464 0.4520966,-0.11187 0.9181639,-0.0655 1.3500713,0.001 v -0.62189 c 0.00107,-0.16172 0.1108579,-0.30243 0.2675154,-0.34255 -0.1703189,-0.35856 -0.2675119,-0.75901 -0.2675154,-1.18054 0,-0.70706 0.2697034,-1.35272 0.7115151,-1.83993 v -2.99754 l -0.277932,-1.10984 H 3.9671081 l -0.2515348,0.25153 c -0.1390905,0.1398 -0.3653594,0.1398 -0.5044499,0 l -0.2515348,-0.25153 -0.6413311,-1e-5 -0.1778788,0.71152 h 2.7466971 c 0.1964812,7.1e-4 0.3551384,0.16066 0.3543699,0.35715 -7.114e-4,0.1954 -0.1589738,0.3536 -0.3543699,0.35437 h -2.846754 v 4.00018 c 0.416208,-0.34154 1.066867,-0.63013 1.8642513,-0.43081 0.2946704,0.0737 0.540143,0.13097 0.7476493,0.17649 -0.075791,-0.17115 -0.122295,-0.35408 -0.1222909,-0.54474 -3.7e-6,-0.57608 0.467999,-1.0512 1.0547605,-1.06588 0.3064567,-3e-5 0.5750251,0.1198 0.7677923,0.31267 z m 7.4132424,-3.69307 c -0.203959,0 -0.438488,0.20045 -0.444,0.3627 -0.0086,0.25237 0.01103,0.76282 0.08825,1.2396 H 14.8476 c 0.195667,3.6e-4 0.354299,0.1587 0.355063,0.35437 7.13e-4,0.19675 -0.158311,0.35677 -0.355063,0.35715 h -0.64759 c 0.155282,0.19751 0.323993,0.45451 0.462069,0.76641 0.37357,-0.30654 0.913743,-0.56014 1.678727,-0.68512 0.106022,-0.22745 0.198293,-0.58211 0.248059,-0.93734 0.0099,-0.0711 0.01833,-0.14218 0.02572,-0.21262 h -1.054768 c -0.196478,7.1e-4 -0.356377,-0.15788 -0.357146,-0.35437 -7.12e-4,-0.19756 0.159579,-0.35792 0.357146,-0.35714 h 1.09437 c 2.74e-4,-0.0643 -1.96e-4,-0.1233 -0.0022,-0.17094 -0.0055,-0.16225 -0.237258,-0.36201 -0.441221,-0.362 z m -10.6567405,1.95667 h 2.8439753 c 0.1975663,-7.1e-4 0.3579205,0.15958 0.3571449,0.35715 -3.556e-4,0.19675 -0.1603932,0.35583 -0.3571449,0.35507 H 3.1089855 c -0.1967517,7e-4 -0.3567679,-0.15832 -0.3571486,-0.35507 -7.116e-4,-0.19757 0.1595822,-0.35793 0.3571486,-0.35715 z m 8.9897825,1.74612 c -0.104906,0.14286 -0.298979,0.18672 -0.45512,0.10286 -0.263478,-0.14101 -0.571162,-0.0373 -0.751122,0.18413 -0.179957,0.22143 -0.25363,0.4983 0.100051,0.88731 0.133532,0.14555 0.122923,0.37202 -0.02362,0.50445 -0.07067,0.0645 -0.164346,0.0977 -0.261952,0.0924 -0.249948,-0.005 -0.515393,0.24187 -0.57046,0.55935 -0.05381,0.31026 0.03269,0.65584 0.65037,0.90537 h 1.017936 c -0.157671,-0.32232 -0.177754,-0.66468 -0.06114,-0.95819 0.139953,-0.35226 0.44722,-0.61736 0.823383,-0.72194 -0.03532,-0.15822 -0.04409,-0.31099 -0.02501,-0.4572 0.0379,-0.2907 0.192806,-0.54446 0.407174,-0.70109 0.301038,-0.22 0.699166,-0.26808 1.073527,-0.15286 0.03017,-0.0769 0.06757,-0.15731 0.11257,-0.23903 -0.171351,-0.60184 -0.528165,-1.01761 -0.710804,-1.19997 -0.621063,0.22957 -0.993129,0.70214 -1.32578,1.19441 z m 4.699934,2.4952 c 0,-0.1042 -0.0077,-0.28178 -0.131327,-0.51695 -0.07277,-0.14037 -0.04418,-0.3119 0.09037,-0.43916 0.597997,-0.45659 0.65665,-0.97162 0.589956,-1.45988 -0.04153,-0.30407 -0.147927,-0.58061 -0.230377,-0.75182 -1.118815,0.0507 -1.720828,0.34446 -2.054334,0.64135 -0.355735,0.31666 -0.431828,0.65909 -0.451644,0.83034 -0.02244,0.19632 -0.200615,0.33672 -0.396755,0.31267 -0.05946,-0.007 -0.116106,-0.0296 -0.164676,-0.0639 -0.261675,-0.19573 -0.548888,-0.17226 -0.680941,-0.0757 -0.06603,0.0483 -0.108617,0.10797 -0.12299,0.21817 -0.01437,0.11026 0.0077,0.28237 0.131326,0.51766 0.03344,0.0645 0.04628,0.13778 0.03683,0.20984 -0.02523,0.19531 -0.204305,0.33297 -0.399529,0.30712 -0.3101,-0.0399 -0.532615,0.12235 -0.609377,0.31545 -0.07089,0.17846 -0.0654,0.41381 0.289053,0.69555 h 1.001264 c 0.249508,-0.49597 0.965889,-1.80265 2.1005,-2.93084 0.06676,-0.0671 0.157536,-0.10488 0.252225,-0.10488 0.09444,2e-4 0.18494,0.0379 0.251531,0.10488 0.139239,0.13967 0.138279,0.36597 -0.0022,0.50445 -0.862584,0.85772 -1.474746,1.84523 -1.795462,2.42639 H 16.79655 Z M 3.1089855,283.04294 h 0.7087329 c 0.1964813,-7.1e-4 0.3563802,0.15789 0.3571486,0.35437 7.114e-4,0.19756 -0.1595822,0.35793 -0.3571486,0.35715 H 3.1089855 c -0.1975664,7.2e-4 -0.3579242,-0.15959 -0.3571486,-0.35715 7.116e-4,-0.19648 0.1606672,-0.35513 0.3571486,-0.35437 z m 3.9126353,2.39025 c 3.6e-6,0.43607 0.1361697,0.83747 0.368266,1.16802 h 2.2839348 c -0.219602,-0.32254 -0.296499,-0.6909 -0.2383291,-1.02627 0.075542,-0.43554 0.3468066,-0.82933 0.7288865,-1.02349 -0.120168,-0.29287 -0.133885,-0.59531 -0.06532,-0.86508 -0.3042585,-0.18312 -0.658753,-0.28906 -1.041911,-0.28906 -1.128043,3.7e-4 -2.0355342,0.9081 -2.0355312,2.03588 z m 2.0330511,-1.32365 c 0.1975663,-7.1e-4 0.3579169,0.15958 0.3571449,0.35714 -7.115e-4,0.19649 -0.1606671,0.35515 -0.3571449,0.35437 -0.014301,0 -0.036558,0.003 -0.06879,0.005 -0.1956666,0.0156 -0.3669959,-0.13029 -0.382859,-0.32588 -0.016009,-0.19568 0.1295275,-0.36733 0.3251871,-0.38356 z m -1.3160751,1.18958 c 0.018784,-0.18413 0.1755733,-0.3231 0.3748936,-0.31894 0.2132625,0 0.3345935,0.19645 0.3345935,0.38982 l -0.00285,0.0625 c 7.115e-4,0.19756 -0.1595821,0.35792 -0.3571485,0.35714 -0.1964812,-7e-4 -0.3551349,-0.16067 -0.3543664,-0.35714 z m 9.7694852,0.94494 v 0.40093 c 0.114048,0.0619 0.185413,0.18085 0.186214,0.31059 h 3.201818 c 0.06848,0 0.135528,0.007 0.201504,0.016 -0.03013,-0.0881 -0.07186,-0.17422 -0.133411,-0.2543 -0.201751,-0.26252 -0.514871,-0.47319 -1.137454,-0.47319 z m -0.525301,1.78088 v -0.71221 h -9.96121 v 0.51696 c 0.4711511,0.22088 0.7898848,0.55582 1.0665789,0.93039 0.1950974,0.26672 0.4030483,0.62419 0.527382,1.07423 0.1518373,0.54956 0.1662419,1.23066 -0.091024,2.02336 0.263748,0.30483 1.1082558,1.14651 2.4103951,1.14649 0.948689,-2e-5 1.186555,-2e-5 2.135243,0 1.589044,2e-5 2.577501,-1.30039 2.577501,-1.30039 1.293314,-1.29468 1.335134,-3.67883 1.335134,-3.67883 z m 3.918207,1.06589 c 0.398188,-0.003 0.706651,-0.31273 0.706651,-0.71152 0,-0.40036 -0.311177,-0.71152 -0.711514,-0.71151 h -3.201829 v 0.35714 c 0,0 0.03917,2.58395 -1.523087,4.15445 -0.02242,0.0297 -0.372518,0.48845 -1.002653,0.89703 0.328888,0.42545 0.391195,0.84476 0.391195,1.35077 h 4.979218 v -4.62484 c -0.196752,-3.7e-4 -0.355832,-0.1604 -0.355064,-0.35716 7.11e-4,-0.19566 0.159397,-0.35399 0.355064,-0.35436 z m -1.741277,-1.11106 c 0.09439,-7.1e-4 0.185126,0.0364 0.252228,0.10287 0.139824,0.13908 0.139824,0.36536 0,0.50445 l -0.04447,0.0445 c -0.138768,0.13797 -0.362909,0.13797 -0.501675,0 -0.139825,-0.13908 -0.139825,-0.36538 0,-0.50445 l 0.04447,-0.0445 c 0.06642,-0.0658 0.15602,-0.1026 0.249446,-0.10287 z m -14.8271403,0.43914 c 0,0 -0.3870286,-0.20551 -0.9505521,-0.21123 -0.4383003,-0.004 -0.9831181,0.11174 -1.5363033,0.5392 -0.3571235,0.3687 -0.6558851,0.82312 -0.7851674,1.27642 -0.19172837,0.69396 -0.14989841,1.6738 0.8428394,3.06771 0.343089,0.4676 0.6724172,0.80603 1.1138269,1.16872 0.1724855,0.17117 0.3566861,0.16872 0.4988966,0.13056 0.2872066,-0.0894 0.5469594,-0.19223 0.8372788,-0.30433 0.086726,-0.0339 0.183265,-0.0324 0.2709841,-7.2e-4 0.2946917,0.11214 0.5370338,0.19821 0.8324157,0.30017 v 3e-5 c 0.2284461,0.076 0.3295489,-0.0299 0.5169903,-0.12653 0.4436083,-0.3335 0.7676785,-0.71906 1.113827,-1.16872 0.9927378,-1.39391 1.0345714,-2.37306 0.8428394,-3.06702 -0.1497775,-0.51659 -0.4485498,-0.90503 -0.7851676,-1.27643 -0.6115044,-0.47246 -1.2065586,-0.56034 -1.6731738,-0.52807 -0.4703612,0.0325 -0.8048728,0.19475 -0.816435,0.19976 -0.1013731,0.0516 -0.2214947,0.0519 -0.323099,3.5e-4 z m -1.1986217,0.24667 c 0.078167,1.4e-4 0.1541105,0.0261 0.2160942,0.0737 0,0 0.2761816,0.20864 0.7094302,0.31755 0.4332487,0.10891 0.9801725,0.12048 1.5863157,-0.3231 0.1582196,-0.11537 0.379974,-0.0812 0.4961181,0.0764 0.1174679,0.15854 0.083486,0.38237 -0.075737,0.4989 -0.7845805,0.57417 -1.6003929,0.58401 -2.179712,0.43844 -0.5793192,-0.14558 -0.9665185,-0.444 -0.9665185,-0.444 -0.1569424,-0.11859 -0.1877617,-0.34218 -0.068789,-0.49889 0.057697,-0.0752 0.1429754,-0.12411 0.236938,-0.13619 0.015191,-10e-4 0.030524,-0.003 0.045861,-0.003 z m 16.025762,1.09229 c 0.09469,10e-6 0.185467,0.0378 0.252228,0.10488 0.13797,0.13877 0.13797,0.3629 0,0.50168 l -0.04447,0.0445 c -0.138768,0.13797 -0.362909,0.13797 -0.501675,0 -0.137512,-0.13868 -0.137512,-0.36228 0,-0.50098 l 0.04447,-0.0452 c 0.06609,-0.0664 0.155721,-0.1042 0.249446,-0.10488 z m -0.711515,1.77809 c 0.09469,1e-5 0.185467,0.0378 0.252229,0.10488 0.137973,0.13877 0.137973,0.3629 0,0.50168 l -0.04447,0.0445 c -0.138768,0.13796 -0.362909,0.13796 -0.501675,0 -0.137973,-0.13877 -0.137973,-0.36291 0,-0.50169 l 0.04446,-0.0445 c 0.06609,-0.0664 0.155722,-0.10421 0.249447,-0.10488 z m 1.220832,1.17914 c 0.0943,-7.1e-4 0.185011,0.036 0.252229,0.10219 0.139823,0.13909 0.139823,0.36538 0,0.50445 l -0.04447,0.0445 c -0.139084,0.13982 -0.365371,0.13982 -0.504455,0 -0.139356,-0.139 -0.139356,-0.36475 0,-0.50375 l 0.04517,-0.0452 c 0.06704,-0.0659 0.157483,-0.10273 0.251532,-0.10219 z m -2.286714,0.24389 c 0.09455,3.6e-4 0.185055,0.0383 0.251532,0.10568 0.13751,0.1387 0.13751,0.3623 0,0.50098 l -0.04447,0.0452 c -0.139083,0.13983 -0.365371,0.13983 -0.504453,0 -0.13797,-0.13876 -0.13797,-0.3629 0,-0.50167 l 0.04517,-0.0445 c 0.06665,-0.0674 0.157437,-0.10542 0.252225,-0.10569 z m -7.8871148,0.45998 c -0.060098,0.053 -0.1280767,0.12505 -0.1862177,0.21819 -0.1634634,0.25975 -0.1549501,0.49629 -0.1549501,0.79003 h 5.6935106 c 0.04393,-0.29507 -0.05494,-0.5608 -0.152172,-0.79003 -0.05623,-0.0901 -0.122721,-0.1602 -0.182045,-0.21262 -0.412159,0.17194 -0.895089,0.29114 -1.443179,0.29113 -0.948688,-10e-6 -1.186554,-10e-6 -2.135243,0 -0.546951,1e-5 -1.0287255,-0.12155 -1.4397038,-0.2967 z"
       sodipodi:nodetypes="sccccssccsccssscccccccccccccccscccccsccccscccccscccccsccccccccccscccccsccccccsccccsccsccccccccccccccsccccccscscccccccccccccccscccsccccccccccssccscsccsccsccccccccccccccccccscssccccccccssccccccccccccscccccccccccccccccccccccccsccccccssccsccccccccccccccccccccccccccccsccccccssccccscss" />
  </g>
</svg>
