<svg width="17" height="16" viewBox="0 0 17 16" fill="none" xmlns="http://www.w3.org/2000/svg">
<path d="M8.5 5.09091C9.31976 5.09091 10.1059 5.3974 10.6856 5.94296C11.2653 6.48852 11.5909 7.22846 11.5909 8C11.5909 8.77154 11.2653 9.51148 10.6856 10.057C10.1059 10.6026 9.31976 10.9091 8.5 10.9091C7.68024 10.9091 6.89405 10.6026 6.3144 10.057C5.73474 9.51148 5.40909 8.77154 5.40909 8C5.40909 7.22846 5.73474 6.48852 6.3144 5.94296C6.89405 5.3974 7.68024 5.09091 8.5 5.09091ZM1.58409 8.72727H0V7.27273H1.58409C1.93182 4.24 4.505 1.81818 7.72727 1.49091V0H9.27273V1.49091C12.495 1.81818 15.0682 4.24 15.4159 7.27273H17V8.72727H15.4159C15.0682 11.76 12.495 14.1818 9.27273 14.5091V16H7.72727V14.5091C4.505 14.1818 1.93182 11.76 1.58409 8.72727ZM8.5 2.90909C7.06542 2.90909 5.6896 3.44545 4.67519 4.40018C3.66079 5.35491 3.09091 6.64981 3.09091 8C3.09091 9.35019 3.66079 10.6451 4.67519 11.5998C5.6896 12.5545 7.06542 13.0909 8.5 13.0909C9.93458 13.0909 11.3104 12.5545 12.3248 11.5998C13.3392 10.6451 13.9091 9.35019 13.9091 8C13.9091 6.64981 13.3392 5.35491 12.3248 4.40018C11.3104 3.44545 9.93458 2.90909 8.5 2.90909Z" fill="#FAC564"/>
</svg>
