<svg width="70" height="70" viewBox="0 0 70 70" fill="none" xmlns="http://www.w3.org/2000/svg">
<path d="M34.9995 69.9979C15.7004 69.9979 0 54.2974 0 34.9995C0 15.7004 15.7004 0 34.9995 0C54.2985 0 70 15.7004 70 34.9995C70 54.2974 54.2985 69.9979 34.9995 69.9979ZM34.9995 4.23364C18.0353 4.23364 4.23364 18.0353 4.23364 34.9995C4.23364 51.9626 18.0353 65.7632 34.9995 65.7632C51.9637 65.7632 65.7664 51.9626 65.7664 34.9995C65.7664 18.0353 51.9637 4.23364 34.9995 4.23364Z" fill="#FAC564"/>
<path d="M26.7982 31.6998C29.3322 31.6998 31.3864 29.6456 31.3864 27.1116C31.3864 24.5776 29.3322 22.5234 26.7982 22.5234C24.2642 22.5234 22.21 24.5776 22.21 27.1116C22.21 29.6456 24.2642 31.6998 26.7982 31.6998Z" fill="#FAC564"/>
<path d="M44.0316 31.6998C46.5656 31.6998 48.6198 29.6456 48.6198 27.1116C48.6198 24.5776 46.5656 22.5234 44.0316 22.5234C41.4976 22.5234 39.4434 24.5776 39.4434 27.1116C39.4434 29.6456 41.4976 31.6998 44.0316 31.6998Z" fill="#FAC564"/>
<path d="M35.3571 51.2464C25.6092 51.2464 19.4884 44.753 19.3984 44.6536L22.5133 41.7863C22.9632 42.27 33.7304 53.4976 49.6562 41.5312L52.1985 44.9139C45.8915 49.6567 40.1803 51.2464 35.3571 51.2464Z" fill="#FAC564"/>
</svg>
