<svg width="20" height="20" viewBox="0 0 20 20" fill="none" xmlns="http://www.w3.org/2000/svg">
<path d="M19.9902 9.99666C19.9902 11.3987 19.962 12.8047 19.9983 14.2067C20.0588 16.6885 18.4987 18.6062 16.5114 19.4603C15.7132 19.8027 14.8748 19.984 14.0081 19.984C11.2951 19.9881 8.57819 20.0243 5.86525 19.9719C3.82149 19.9317 2.14052 19.0776 0.935216 17.3935C0.302333 16.5072 0 15.5 0 14.4082C0 11.5195 0 8.63493 0 5.74629C0 3.38945 1.14886 1.74167 3.1886 0.670012C4.07544 0.206702 5.03888 0.00929089 6.04262 0.0052621C8.67493 0.0052621 11.3113 -0.0108531 13.9436 0.0133197C15.9874 0.0294348 17.6925 0.81102 18.9502 2.45477C19.6516 3.37333 19.9902 4.42887 19.9902 5.58917C19.9902 7.05565 19.9902 8.52615 19.9902 9.99666ZM1.48748 9.99666C1.48748 11.4752 1.48748 12.9498 1.48748 14.4283C1.48748 15.0891 1.64066 15.7095 1.9833 16.2695C2.88224 17.74 4.24072 18.4571 5.92572 18.4853C8.63059 18.5256 11.3395 18.5014 14.0484 18.4934C14.7135 18.4934 15.3585 18.3564 15.9591 18.0704C17.5958 17.2888 18.5108 16.0439 18.5028 14.1745C18.4866 11.3141 18.4987 8.45364 18.4987 5.59319C18.4987 4.78341 18.269 4.04211 17.7893 3.38945C16.8621 2.13649 15.5802 1.52009 14.0484 1.50397C11.3476 1.47174 8.64671 1.49189 5.94588 1.49591C5.36943 1.49591 4.81314 1.61275 4.27297 1.81419C2.78952 2.36613 1.41089 3.76412 1.47538 5.82284C1.52376 7.2168 1.48748 8.60673 1.48748 9.99666Z" fill="white"/>
<path d="M10.0177 14.2672C7.41759 14.2672 5.32142 12.1964 5.31739 9.61798C5.31336 7.07984 7.42566 5.00098 10.0096 5.00098C12.6016 4.99695 14.7058 7.07178 14.7099 9.63006C14.7099 12.1843 12.6097 14.2632 10.0177 14.2672ZM10.0177 12.7765C11.7873 12.7765 13.2224 11.3624 13.2183 9.622C13.2143 7.89768 11.7792 6.48761 10.0177 6.48761C8.248 6.48761 6.80487 7.89365 6.80487 9.63006C6.8089 11.3705 8.248 12.7806 10.0177 12.7765Z" fill="white"/>
<path d="M15.2541 3.58984C15.7983 3.58984 16.2417 4.05315 16.2417 4.62121C16.2377 5.18927 15.7903 5.64856 15.2461 5.64453C14.7099 5.6405 14.2705 5.18122 14.2705 4.62524C14.2665 4.05718 14.7099 3.58984 15.2541 3.58984Z" fill="white"/>
</svg>
