<svg width="79" height="41" viewBox="0 0 79 41" fill="none" xmlns="http://www.w3.org/2000/svg">
<path d="M29.0342 10.4571C29.0347 10.0468 28.9538 9.64043 28.7961 9.26165C28.6383 8.88287 28.407 8.53915 28.1155 8.25041C22.3068 1.47169 14.3395 0.129209 14.2129 0.108701C14.2124 0.108388 14.2118 0.108189 14.2112 0.108115V0.108701C13.6376 -0.0470258 13.0315 -0.0352134 12.4644 0.142741C11.8974 0.320696 11.3932 0.657347 11.0114 1.11287C10.6297 1.56838 10.3864 2.12371 10.3104 2.71315C10.2344 3.30258 10.3287 3.90147 10.5824 4.43894L10.5362 4.51026C10.2467 4.96306 9.89144 5.37025 9.48209 5.71847C8.5733 6.49249 6.91451 7.89464 5.42213 9.15382C5.33541 9.14679 5.24576 9.14327 5.15553 9.14327C4.0522 9.14327 3.15748 9.66827 3.15748 10.3151C3.15748 10.3165 3.15769 10.3178 3.1577 10.3192V10.8026C3.15789 10.8805 3.17086 10.9578 3.19609 11.0315C2.67252 11.473 2.33794 11.7549 2.32486 11.7659C2.31549 11.7741 2.30553 11.7829 2.29615 11.7917C1.24447 12.7902 0.510636 14.0766 0.186503 15.4901C-0.13763 16.9036 -0.0376658 18.3813 0.473885 19.7382L1.94986 23.6687C1.95279 23.6757 1.95572 23.6827 1.95865 23.6903C2.0817 23.9862 2.40103 24.8956 2.39869 25.5284V26.0247C2.39851 26.2927 2.50173 26.5504 2.68686 26.7442C2.87199 26.9379 3.12473 27.0527 3.39244 27.0648C3.40299 27.0653 3.41295 27.0653 3.42349 27.0653C3.6952 27.0651 3.9557 26.957 4.14782 26.7649C4.33995 26.5727 4.44801 26.3122 4.4483 26.0405V24.7358C4.46032 24.7107 4.47087 24.6848 4.4799 24.6584L5.35221 22.0617C5.56618 21.4247 5.92754 20.8472 6.40687 20.3763C6.8862 19.9054 7.46996 19.5544 8.11062 19.3517L11.707 18.2139C11.8537 18.3559 11.9725 18.5241 12.0573 18.7099C12.3168 19.2519 12.3625 19.9023 12.3702 20.1653V23.8058C12.37 24.0739 12.4733 24.3318 12.6585 24.5256C12.8438 24.7195 13.0966 24.8344 13.3645 24.8464C13.3745 24.847 13.385 24.847 13.3956 24.847C13.6672 24.8466 13.9277 24.7385 14.1198 24.5464C14.3119 24.3543 14.42 24.0939 14.4204 23.8222V20.7554C14.603 20.9053 14.8321 20.9872 15.0684 20.9868C15.1127 20.987 15.1569 20.9843 15.2008 20.9786C15.4491 20.9443 15.6764 20.821 15.8405 20.6316C16.0047 20.4423 16.0945 20.1997 16.0932 19.9491V17.5597C16.1049 17.2993 16.1448 17.041 16.2122 16.7892L24.8706 14.0503L26.4551 13.5222L26.4538 13.5217C27.176 13.3967 27.8309 13.0207 28.303 12.4601C28.7751 11.8994 29.0341 11.19 29.0342 10.4571ZM11.9723 2.2421C12.0858 2.03479 12.2189 1.83879 12.3696 1.65675C12.5379 1.49203 12.7321 1.35605 12.9444 1.25421C13.0485 1.20378 13.156 1.16051 13.2661 1.12472C13.3212 1.10714 13.596 1.04269 13.6235 1.03976C13.6765 1.03545 13.7298 1.04164 13.7804 1.05797C13.831 1.0743 13.8778 1.10045 13.9183 1.13493C13.9587 1.1694 13.992 1.21152 14.0162 1.25887C14.0403 1.30622 14.0549 1.35787 14.0591 1.41086C14.0632 1.46385 14.0569 1.51715 14.0404 1.56769C14.024 1.61823 13.9977 1.66502 13.9631 1.70539C13.9285 1.74576 13.8863 1.77891 13.8389 1.80294C13.7915 1.82696 13.7398 1.8414 13.6868 1.84542C13.6792 1.84542 13.5057 1.86358 13.4676 1.8712C13.3882 1.88659 13.3099 1.90734 13.2333 1.93331C13.0833 1.98385 12.9424 2.05824 12.8161 2.15362C12.6925 2.24874 12.5888 2.36719 12.5108 2.50226C12.4306 2.64662 12.3748 2.80321 12.3456 2.96573L12.3444 2.97159C12.332 3.03772 12.2948 3.09662 12.2404 3.13627C12.1861 3.17592 12.1187 3.19334 12.0519 3.18497C11.9851 3.1766 11.9241 3.14306 11.8812 3.09122C11.8383 3.03937 11.8168 2.97311 11.8212 2.90597C11.8345 2.67785 11.8856 2.45352 11.9723 2.2421ZM11.895 3.83585C11.9735 3.82015 12.0549 3.82808 12.1289 3.85864C12.2029 3.88921 12.2662 3.94103 12.3107 4.00756C12.3553 4.07408 12.3791 4.15233 12.3792 4.2324C12.3793 4.31247 12.3556 4.39076 12.3112 4.45739C12.2668 4.52401 12.2036 4.57596 12.1297 4.60668C12.0557 4.6374 11.9744 4.6455 11.8958 4.62996C11.8173 4.61442 11.7451 4.57594 11.6884 4.51938C11.6317 4.46283 11.5931 4.39073 11.5774 4.31222C11.5564 4.20694 11.5781 4.09764 11.6376 4.00832C11.6972 3.919 11.7897 3.85697 11.895 3.83585ZM4.00943 9.94132C4.24815 9.81034 4.51002 9.72696 4.78053 9.69581C5.09897 9.65282 5.42243 9.66491 5.73678 9.73155C5.93482 9.77166 6.1254 9.84244 6.30162 9.94132C6.50201 10.0591 6.62623 10.2021 6.62623 10.3151C6.62623 10.4282 6.50201 10.5718 6.30162 10.689C6.00806 10.8612 5.59088 10.9597 5.15553 10.9597C4.90144 10.961 4.64848 10.9259 4.40435 10.8554C4.26637 10.8164 4.13373 10.7605 4.00943 10.689C3.93124 10.6444 3.85933 10.5896 3.79556 10.5261C3.73365 10.472 3.69416 10.3968 3.68482 10.3151C3.68482 10.2021 3.80963 10.0591 4.00943 9.94132ZM15.4487 19.9491C15.4501 20.0431 15.4175 20.1343 15.3569 20.206C15.2962 20.2778 15.2117 20.3251 15.1188 20.3394C15.1021 20.3415 15.0853 20.3425 15.0684 20.3423C15.0185 20.3423 14.9691 20.3324 14.923 20.3133C14.8769 20.2942 14.835 20.2662 14.7997 20.2309C14.7645 20.1956 14.7365 20.1536 14.7175 20.1075C14.6984 20.0614 14.6887 20.0119 14.6887 19.962V17.2708C14.6887 17.2708 14.6327 16.8572 14.4053 16.7126C14.3553 16.6802 14.2969 16.663 14.2374 16.6632H14.2371H14.237C14.0611 16.6632 13.9482 16.8673 13.8781 17.0808C13.829 17.2369 13.7947 17.3973 13.7756 17.5599L13.7758 17.5599V23.8222C13.7757 23.923 13.7357 24.0197 13.6644 24.091C13.5931 24.1623 13.4964 24.2024 13.3956 24.2025H13.3838C13.283 24.1967 13.1883 24.1522 13.1195 24.0783C13.0507 24.0044 13.0132 23.9067 13.0147 23.8058V20.1566C12.9965 19.4534 12.7786 17.2339 10.7688 17.2339C10.5088 17.2363 10.2499 17.2682 9.99712 17.3288L7.28423 18.213C6.61436 18.4317 6.0039 18.8018 5.50027 19.2946C4.99665 19.7875 4.61341 20.3898 4.38032 21.0548L4.12075 21.7954C3.91365 22.4383 3.80673 23.1093 3.80376 23.7847V26.0405C3.80382 26.0905 3.79402 26.14 3.77493 26.1861C3.75584 26.2323 3.72783 26.2742 3.6925 26.3096C3.65718 26.3449 3.61524 26.3729 3.56908 26.392C3.52292 26.4111 3.47344 26.4209 3.42349 26.4208H3.41177C3.31114 26.415 3.21665 26.3705 3.14799 26.2967C3.07932 26.2229 3.04179 26.1255 3.04321 26.0247V25.5308C3.04614 24.6243 2.55337 23.4419 2.55337 23.4419L1.0774 19.5114C0.612052 18.2728 0.521592 16.9245 0.817298 15.6348C1.113 14.3451 1.78179 13.1709 2.74029 12.2587C2.74029 12.2587 3.07164 11.9792 3.59766 11.5358C3.96388 11.8032 4.52553 11.9744 5.15567 11.9744C6.25913 11.9744 7.15366 11.4498 7.15366 10.8026V10.3152C7.15366 10.3357 7.15276 10.3557 7.15097 10.3752C7.15268 10.3553 7.15355 10.3353 7.15356 10.3151C7.15356 9.89737 6.7809 9.53116 6.22016 9.32374C7.60356 8.15538 9.06313 6.9214 9.89985 6.20948C10.3011 5.86756 10.6564 5.47507 10.9568 5.04183C11.2471 5.40817 11.616 5.70467 12.0362 5.90948C12.3174 5.99093 12.5997 6.08077 12.8829 6.17901C18.018 7.95323 23.3295 12.2265 23.4122 12.2933C23.4095 12.2896 23.4071 12.2857 23.4044 12.2821C23.5434 12.4734 23.7036 12.6484 23.8819 12.8037L23.1977 13.0228L20.9413 13.7587L16.9616 15.0571L16.9598 15.0577L16.7577 15.1233C15.4499 15.6337 15.4487 17.5597 15.4487 17.5597V19.9491ZM25.9237 12.8059C25.4591 12.8059 25.005 12.6682 24.6187 12.4101C24.2324 12.152 23.9313 11.7851 23.7535 11.3559C23.5757 10.9267 23.5292 10.4544 23.6199 9.99878C23.7105 9.54314 23.9342 9.1246 24.2627 8.7961C24.5912 8.46759 25.0097 8.24388 25.4654 8.15325C25.921 8.06262 26.3933 8.10914 26.8225 8.28693C27.2517 8.46471 27.6186 8.76578 27.8767 9.15206C28.1348 9.53834 28.2725 9.99248 28.2725 10.4571C28.2728 10.7656 28.2123 11.0712 28.0944 11.3563C27.9764 11.6414 27.8034 11.9005 27.5852 12.1186C27.3671 12.3368 27.108 12.5098 26.8229 12.6277C26.5378 12.7457 26.2322 12.8062 25.9237 12.8059Z" fill="#FAA430"/>
<path d="M17.1561 12.1197V11.6323C17.1561 10.9851 16.2616 10.4604 15.1581 10.4604C14.0547 10.4604 13.1602 10.9851 13.1602 11.6323V12.1197C13.1602 12.7669 14.0547 13.2915 15.1581 13.2915C16.2616 13.2915 17.1561 12.7669 17.1561 12.1197ZM14.0121 11.2586C14.3055 11.0865 14.7232 10.9878 15.1581 10.9878C15.5931 10.9878 16.0108 11.0865 16.3041 11.2586C16.5044 11.376 16.6288 11.5192 16.6288 11.6323C16.6288 11.7454 16.5044 11.8886 16.3041 12.006C16.0108 12.1781 15.5931 12.2768 15.1581 12.2768C14.7232 12.2768 14.3055 12.1781 14.0121 12.006C13.8119 11.8886 13.6875 11.7454 13.6875 11.6323C13.6875 11.5192 13.8119 11.376 14.0121 11.2586Z" fill="#FAA430"/>
<path d="M6.61127 13.364C5.50781 13.364 4.61328 13.8886 4.61328 14.5358V15.0232C4.61328 15.6704 5.50781 16.1951 6.61127 16.1951C7.71473 16.1951 8.60926 15.6704 8.60926 15.0232V14.5358C8.60926 13.8886 7.71473 13.364 6.61127 13.364ZM5.46527 14.1621C5.75865 13.99 6.17635 13.8914 6.61127 13.8914C7.04619 13.8914 7.46389 13.99 7.75728 14.1621C7.95752 14.2796 8.08188 14.4228 8.08188 14.5358C8.08188 14.6489 7.95749 14.7921 7.75728 14.9096C7.46389 15.0816 7.04619 15.1803 6.61127 15.1803C6.17635 15.1803 5.75865 15.0816 5.46527 14.9096C5.26503 14.7921 5.14062 14.6489 5.14062 14.5358C5.14062 14.4227 5.26503 14.2796 5.46527 14.1621Z" fill="#FAA430"/>
<path d="M13.4779 14.6592H11.9889C11.9123 14.6592 11.8389 14.6896 11.7847 14.7437C11.7306 14.7979 11.7002 14.8713 11.7002 14.9478C11.7002 15.0244 11.7306 15.0978 11.7847 15.1519C11.8389 15.2061 11.9123 15.2365 11.9889 15.2365H13.4779C13.5545 15.2365 13.6279 15.2061 13.682 15.1519C13.7362 15.0978 13.7666 15.0244 13.7666 14.9478C13.7666 14.8713 13.7362 14.7979 13.682 14.7437C13.6279 14.6896 13.5545 14.6592 13.4779 14.6592Z" fill="#FAA430"/>
<path d="M12.7294 8.50289C12.7294 7.99052 12.0721 7.61865 11.1665 7.61865C10.2609 7.61865 9.60352 7.99052 9.60352 8.50289C9.60352 9.01526 10.2608 9.38713 11.1665 9.38713C12.0722 9.38713 12.7294 9.01527 12.7294 8.50289ZM11.1665 8.80982C10.5215 8.80982 10.1921 8.57393 10.1808 8.50346C10.1921 8.43183 10.5214 8.19597 11.1665 8.19597C11.81 8.19597 12.1392 8.43062 12.152 8.50289C12.1391 8.57518 11.8099 8.80982 11.1665 8.80982Z" fill="#FAA430"/>
<path d="M4.36317 17.2956C4.01826 17.3639 3.69183 17.5047 3.40558 17.7089C3.11233 17.9029 2.86372 18.157 2.67626 18.4545C2.41349 18.9013 2.52697 19.1902 2.61803 19.3227C2.74595 19.5089 2.96362 19.6002 3.23109 19.6002C3.57032 19.6002 3.98954 19.4532 4.40691 19.1665C4.70016 18.9725 4.94877 18.7184 5.13623 18.4209C5.39894 17.9742 5.28551 17.6852 5.19446 17.5527C5.10341 17.4202 4.87423 17.2105 4.36317 17.2956ZM4.08003 18.6907C3.54821 19.0561 3.14342 19.0481 3.09414 18.9963C3.06291 18.9308 3.20081 18.55 3.73245 18.1847C4.11171 17.9242 4.42659 17.8535 4.59398 17.8535C4.63723 17.8486 4.68092 17.8578 4.71858 17.8796C4.7489 17.9464 4.61038 18.3263 4.08003 18.6907Z" fill="#FAA430"/>
<path d="M2.99109 15.8144C2.99109 15.6578 2.72048 15.3176 2.38666 15.3176C2.05284 15.3176 1.78223 15.6578 1.78223 15.8144C1.78223 15.9709 2.05284 16.0978 2.38666 16.0978C2.72047 16.0978 2.99109 15.9709 2.99109 15.8144Z" fill="#FAA430"/>
<path d="M19.2812 13.0743C19.615 13.0743 19.8856 12.9474 19.8856 12.7909C19.8856 12.6344 19.615 12.2942 19.2812 12.2942C18.9474 12.2942 18.6768 12.6344 18.6768 12.7909C18.6768 12.9475 18.9474 13.0743 19.2812 13.0743Z" fill="#FAA430"/>
<path d="M9.68061 11.6819C9.34679 11.6819 9.07617 12.0221 9.07617 12.1786C9.07617 12.3351 9.34679 12.462 9.68061 12.462C10.0144 12.462 10.285 12.3351 10.285 12.1786C10.285 12.0221 10.0144 11.6819 9.68061 11.6819Z" fill="#FAA430"/>
<path d="M38.9401 7.54004C39.9934 7.54004 40.8934 7.72004 41.6401 8.08004C42.3867 8.42671 42.9601 8.93337 43.3601 9.60004C43.7734 10.2667 43.9801 11.0734 43.9801 12.02C43.9801 12.5934 43.8934 13.16 43.7201 13.72C43.5467 14.2667 43.2667 14.7667 42.8801 15.22C42.5067 15.66 42.0134 16.0134 41.4001 16.28C40.7867 16.5467 40.0401 16.68 39.1601 16.68H37.0201V22H35.0801V7.54004H38.9401ZM39.1401 14.82C39.7134 14.82 40.1867 14.7267 40.5601 14.54C40.9334 14.3534 41.2267 14.12 41.4401 13.84C41.6534 13.5467 41.8067 13.24 41.9001 12.92C41.9934 12.6 42.0401 12.3134 42.0401 12.06C42.0401 11.7667 41.9934 11.4667 41.9001 11.16C41.8067 10.84 41.6467 10.5534 41.4201 10.3C41.2067 10.0334 40.9201 9.82004 40.5601 9.66004C40.2134 9.48671 39.7801 9.40004 39.2601 9.40004H37.0201V14.82H39.1401Z" fill="white"/>
<path d="M46.5146 13.72H48.3746V22H46.5146V13.72ZM46.3746 10.72C46.3746 10.4267 46.4879 10.18 46.7146 9.98004C46.9546 9.78004 47.2146 9.68004 47.4946 9.68004C47.7746 9.68004 48.0213 9.78004 48.2346 9.98004C48.4613 10.18 48.5746 10.4267 48.5746 10.72C48.5746 11.0267 48.4613 11.28 48.2346 11.48C48.0213 11.6667 47.7746 11.76 47.4946 11.76C47.2146 11.76 46.9546 11.66 46.7146 11.46C46.4879 11.26 46.3746 11.0134 46.3746 10.72Z" fill="white"/>
<path d="M52.3527 15.24C51.9394 15.24 51.5861 15.1134 51.2927 14.86C50.9994 14.6067 50.8527 14.2267 50.8527 13.72V12.94H52.2727V13.2C52.2727 13.4134 52.3261 13.5534 52.4327 13.62C52.5394 13.6867 52.7127 13.72 52.9527 13.72H58.2527L53.2927 20.86L52.9327 20.46H58.1927V22H50.5327L55.5927 14.72L55.9127 15.24H52.3527Z" fill="white"/>
<path d="M61.6105 15.24C61.1972 15.24 60.8439 15.1134 60.5505 14.86C60.2572 14.6067 60.1105 14.2267 60.1105 13.72V12.94H61.5305V13.2C61.5305 13.4134 61.5839 13.5534 61.6905 13.62C61.7972 13.6867 61.9705 13.72 62.2105 13.72H67.5105L62.5505 20.86L62.1905 20.46H67.4505V22H59.7905L64.8505 14.72L65.1705 15.24H61.6105Z" fill="white"/>
<path d="M73.5484 22.2C72.775 22.2 72.0684 22.0334 71.4284 21.7C70.8017 21.3667 70.3017 20.88 69.9284 20.24C69.5684 19.5867 69.3884 18.7934 69.3884 17.86C69.3884 16.94 69.5817 16.1467 69.9684 15.48C70.355 14.8 70.8684 14.28 71.5084 13.92C72.1617 13.56 72.875 13.38 73.6484 13.38C74.4217 13.38 75.075 13.56 75.6084 13.92C76.1417 14.2667 76.5484 14.68 76.8284 15.16L76.7084 15.48L76.8884 13.72H78.6084V22H76.7484V19.84L76.9484 20.32C76.895 20.4534 76.775 20.6267 76.5884 20.84C76.415 21.04 76.175 21.2467 75.8684 21.46C75.575 21.6734 75.235 21.8534 74.8484 22C74.4617 22.1334 74.0284 22.2 73.5484 22.2ZM74.0484 20.66C74.515 20.66 74.935 20.5734 75.3084 20.4C75.6817 20.2267 75.9884 19.9867 76.2284 19.68C76.4817 19.36 76.655 18.98 76.7484 18.54V16.92C76.6417 16.52 76.455 16.1734 76.1884 15.88C75.9217 15.5734 75.6017 15.34 75.2284 15.18C74.855 15.0067 74.4417 14.92 73.9884 14.92C73.495 14.92 73.0417 15.04 72.6284 15.28C72.215 15.52 71.8817 15.8534 71.6284 16.28C71.3884 16.7067 71.2684 17.2067 71.2684 17.78C71.2684 18.3134 71.395 18.8 71.6484 19.24C71.9017 19.68 72.2417 20.0267 72.6684 20.28C73.095 20.5334 73.555 20.66 74.0484 20.66Z" fill="white"/>
<path d="M0.368164 40.0001V31.6001H3.78816C4.68416 31.6001 5.46816 31.7801 6.14016 32.1401C6.82016 32.4921 7.34816 32.9841 7.72416 33.6161C8.10016 34.2481 8.28816 34.9761 8.28816 35.8001C8.28816 36.6241 8.10016 37.3521 7.72416 37.9841C7.34816 38.6161 6.82016 39.1121 6.14016 39.4721C5.46816 39.8241 4.68416 40.0001 3.78816 40.0001H0.368164ZM1.25616 39.2321H3.74016C4.48416 39.2321 5.12816 39.0881 5.67216 38.8001C6.22416 38.5041 6.65216 38.1001 6.95616 37.5881C7.26016 37.0681 7.41216 36.4721 7.41216 35.8001C7.41216 35.1201 7.26016 34.5241 6.95616 34.0121C6.65216 33.5001 6.22416 33.1001 5.67216 32.8121C5.12816 32.5161 4.48416 32.3681 3.74016 32.3681H1.25616V39.2321Z" fill="#FAA430"/>
<path d="M12.6342 35.3561H17.0742V36.1121H12.6342V35.3561ZM12.7302 39.2321H17.7822V40.0001H11.8422V31.6001H17.6022V32.3681H12.7302V39.2321Z" fill="#FAA430"/>
<path d="M21.4296 40.0001V31.6001H22.3176V39.2321H27.0216V40.0001H21.4296Z" fill="#FAA430"/>
<path d="M30.056 40.0001V31.6001H30.944V40.0001H30.056Z" fill="#FAA430"/>
<path d="M38.8851 40.0721C38.2531 40.0721 37.6691 39.9681 37.1331 39.7601C36.5971 39.5441 36.1331 39.2441 35.7411 38.8601C35.3491 38.4761 35.0411 38.0241 34.8171 37.5041C34.6011 36.9841 34.4931 36.4161 34.4931 35.8001C34.4931 35.1841 34.6011 34.6161 34.8171 34.0961C35.0411 33.5761 35.3491 33.1241 35.7411 32.7401C36.1411 32.3561 36.6091 32.0601 37.1451 31.8521C37.6811 31.6361 38.2651 31.5281 38.8971 31.5281C39.5051 31.5281 40.0771 31.6321 40.6131 31.8401C41.1491 32.0401 41.6011 32.3441 41.9691 32.7521L41.4051 33.3161C41.0611 32.9641 40.6811 32.7121 40.2651 32.5601C39.8491 32.4001 39.4011 32.3201 38.9211 32.3201C38.4171 32.3201 37.9491 32.4081 37.5171 32.5841C37.0851 32.7521 36.7091 32.9961 36.3891 33.3161C36.0691 33.6281 35.8171 33.9961 35.6331 34.4201C35.4571 34.8361 35.3691 35.2961 35.3691 35.8001C35.3691 36.3041 35.4571 36.7681 35.6331 37.1921C35.8171 37.6081 36.0691 37.9761 36.3891 38.2961C36.7091 38.6081 37.0851 38.8521 37.5171 39.0281C37.9491 39.1961 38.4171 39.2801 38.9211 39.2801C39.4011 39.2801 39.8491 39.2001 40.2651 39.0401C40.6811 38.8801 41.0611 38.6241 41.4051 38.2721L41.9691 38.8361C41.6011 39.2441 41.1491 39.5521 40.6131 39.7601C40.0771 39.9681 39.5011 40.0721 38.8851 40.0721Z" fill="#FAA430"/>
<path d="M45.4221 40.0001V31.6001H46.3101V40.0001H45.4221Z" fill="#FAA430"/>
<path d="M54.2752 40.0721C53.6432 40.0721 53.0552 39.9681 52.5112 39.7601C51.9752 39.5441 51.5072 39.2441 51.1072 38.8601C50.7152 38.4681 50.4072 38.0161 50.1832 37.5041C49.9672 36.9841 49.8592 36.4161 49.8592 35.8001C49.8592 35.1841 49.9672 34.6201 50.1832 34.1081C50.4072 33.5881 50.7152 33.1361 51.1072 32.7521C51.5072 32.3601 51.9752 32.0601 52.5112 31.8521C53.0472 31.6361 53.6352 31.5281 54.2752 31.5281C54.9072 31.5281 55.4912 31.6361 56.0272 31.8521C56.5632 32.0601 57.0272 32.3561 57.4192 32.7401C57.8192 33.1241 58.1272 33.5761 58.3432 34.0961C58.5672 34.6161 58.6792 35.1841 58.6792 35.8001C58.6792 36.4161 58.5672 36.9841 58.3432 37.5041C58.1272 38.0241 57.8192 38.4761 57.4192 38.8601C57.0272 39.2441 56.5632 39.5441 56.0272 39.7601C55.4912 39.9681 54.9072 40.0721 54.2752 40.0721ZM54.2752 39.2801C54.7792 39.2801 55.2432 39.1961 55.6672 39.0281C56.0992 38.8521 56.4712 38.6081 56.7832 38.2961C57.1032 37.9761 57.3512 37.6081 57.5272 37.1921C57.7032 36.7681 57.7912 36.3041 57.7912 35.8001C57.7912 35.2961 57.7032 34.8361 57.5272 34.4201C57.3512 33.9961 57.1032 33.6281 56.7832 33.3161C56.4712 32.9961 56.0992 32.7521 55.6672 32.5841C55.2432 32.4081 54.7792 32.3201 54.2752 32.3201C53.7712 32.3201 53.3032 32.4081 52.8712 32.5841C52.4392 32.7521 52.0632 32.9961 51.7432 33.3161C51.4312 33.6281 51.1832 33.9961 50.9992 34.4201C50.8232 34.8361 50.7352 35.2961 50.7352 35.8001C50.7352 36.2961 50.8232 36.7561 50.9992 37.1801C51.1832 37.6041 51.4312 37.9761 51.7432 38.2961C52.0632 38.6081 52.4392 38.8521 52.8712 39.0281C53.3032 39.1961 53.7712 39.2801 54.2752 39.2801Z" fill="#FAA430"/>
<path d="M65.6136 40.0721C64.5416 40.0721 63.6976 39.7641 63.0816 39.1481C62.4656 38.5321 62.1576 37.6201 62.1576 36.4121V31.6001H63.0456V36.3761C63.0456 37.3681 63.2696 38.1001 63.7176 38.5721C64.1656 39.0441 64.7976 39.2801 65.6136 39.2801C66.4376 39.2801 67.0736 39.0441 67.5216 38.5721C67.9696 38.1001 68.1936 37.3681 68.1936 36.3761V31.6001H69.0576V36.4121C69.0576 37.6201 68.7496 38.5321 68.1336 39.1481C67.5256 39.7641 66.6856 40.0721 65.6136 40.0721Z" fill="#FAA430"/>
<path d="M75.6095 40.0721C74.9855 40.0721 74.3855 39.9721 73.8095 39.7721C73.2415 39.5641 72.8015 39.3001 72.4895 38.9801L72.8375 38.2961C73.1335 38.5841 73.5295 38.8281 74.0255 39.0281C74.5295 39.2201 75.0575 39.3161 75.6095 39.3161C76.1375 39.3161 76.5655 39.2521 76.8935 39.1241C77.2295 38.9881 77.4735 38.8081 77.6255 38.5841C77.7855 38.3601 77.8655 38.1121 77.8655 37.8401C77.8655 37.5121 77.7695 37.2481 77.5775 37.0481C77.3935 36.8481 77.1495 36.6921 76.8455 36.5801C76.5415 36.4601 76.2055 36.3561 75.8375 36.2681C75.4695 36.1801 75.1015 36.0881 74.7335 35.9921C74.3655 35.8881 74.0255 35.7521 73.7135 35.5841C73.4095 35.4161 73.1615 35.1961 72.9695 34.9241C72.7855 34.6441 72.6935 34.2801 72.6935 33.8321C72.6935 33.4161 72.8015 33.0361 73.0175 32.6921C73.2415 32.3401 73.5815 32.0601 74.0375 31.8521C74.4935 31.6361 75.0775 31.5281 75.7895 31.5281C76.2615 31.5281 76.7295 31.5961 77.1935 31.7321C77.6575 31.8601 78.0575 32.0401 78.3935 32.2721L78.0935 32.9801C77.7335 32.7401 77.3495 32.5641 76.9415 32.4521C76.5415 32.3401 76.1535 32.2841 75.7775 32.2841C75.2735 32.2841 74.8575 32.3521 74.5295 32.4881C74.2015 32.6241 73.9575 32.8081 73.7975 33.0401C73.6455 33.2641 73.5695 33.5201 73.5695 33.8081C73.5695 34.1361 73.6615 34.4001 73.8455 34.6001C74.0375 34.8001 74.2855 34.9561 74.5895 35.0681C74.9015 35.1801 75.2415 35.2801 75.6095 35.3681C75.9775 35.4561 76.3415 35.5521 76.7015 35.6561C77.0695 35.7601 77.4055 35.8961 77.7095 36.0641C78.0215 36.2241 78.2695 36.4401 78.4535 36.7121C78.6455 36.9841 78.7415 37.3401 78.7415 37.7801C78.7415 38.1881 78.6295 38.5681 78.4055 38.9201C78.1815 39.2641 77.8375 39.5441 77.3735 39.7601C76.9175 39.9681 76.3295 40.0721 75.6095 40.0721Z" fill="#FAA430"/>
</svg>
