<svg width="70" height="70" viewBox="0 0 70 70" fill="none" xmlns="http://www.w3.org/2000/svg">
<path d="M13.0942 1.07617L5.9624 4.8454C0.962791 7.47244 -0.360633 12.7836 3.02145 16.6671L21.917 38.7685L43.6065 36.1985L13.0942 1.07617Z" fill="#FAC564"/>
<path d="M57.7305 1.07617L65.055 4.8454C70.1898 7.47244 71.549 12.7836 68.0755 16.6671L48.6692 38.7685L26.3936 36.1985L57.7305 1.07617Z" fill="#FAC564"/>
<path d="M12.623 1.07617H57.3771L45.3681 13.9992H24.7812L12.623 1.07617Z" fill="#FAC564"/>
<path opacity="0.1" d="M12.623 1.07617H57.3771L45.3681 13.9992H24.7812L12.623 1.07617Z" fill="black"/>
<path d="M35.0001 68.9225C47.3586 68.9225 57.3771 61.208 57.3771 51.6917C57.3771 42.1754 47.3586 34.4609 35.0001 34.4609C22.6416 34.4609 12.623 42.1754 12.623 51.6917C12.623 61.208 22.6416 68.9225 35.0001 68.9225Z" fill="#FAC564"/>
<path d="M64.8686 3.81922L58.0754 0.0570032C58.0754 0.0570032 58.0754 0.0570032 58.0015 0.0570032C58.0015 0.0570032 58.0015 0.0570032 57.9277 0.0570032C57.9277 0.0570032 57.8539 0.0570033 57.8539 0C57.78 0 57.78 0 57.7062 0H57.6323C57.5585 0 57.5585 0 57.4847 0H57.4108H13.1073C13.0335 0 12.9596 0 12.9596 0H12.8858C12.812 0 12.812 -5.5212e-08 12.7381 0.0570032C12.6643 0.0570032 12.6643 0.114007 12.5904 0.114007C12.5904 0.114007 12.5904 0.114007 12.5166 0.114007L5.35419 3.87622C-0.183746 6.72638 -1.66053 12.5407 2.03143 16.816L20.4912 38.1922C15.3225 41.4984 11.9997 46.4577 11.9997 52.044C11.9997 61.9625 22.411 70 35.2591 70C48.1071 70 58.5184 61.9625 58.5184 52.044C58.5184 46.3436 55.048 41.2704 49.7315 37.9642L67.9698 16.6449C71.588 12.4267 70.2588 6.78339 64.8686 3.81922ZM27.0629 15.3339H43.4552L35.2591 24.8534L27.0629 15.3339ZM44.8582 13.6808C44.7105 13.6238 44.6366 13.6238 44.489 13.6238H25.8815C25.8077 13.6238 25.7338 13.6238 25.66 13.6238L15.1748 1.59609H55.3433L44.8582 13.6808ZM3.87741 15.8469C0.850003 12.3697 2.03143 7.58143 6.53562 5.2443L12.812 1.93811L34.373 26.8485L34.4468 26.9055L41.0924 34.601C39.2464 34.259 37.3266 34.0309 35.2591 34.0309C30.4595 34.0309 25.9553 35.171 22.2634 37.1091L3.87741 15.8469ZM56.3032 52.044C56.3032 60.9935 46.8518 68.2899 35.2591 68.2899C23.6663 68.2899 14.2149 60.9935 14.2149 52.044C14.2149 43.0945 23.6663 35.798 35.2591 35.798C46.8518 35.798 56.3032 43.0945 56.3032 52.044ZM66.1239 15.6759L47.8856 36.9951C46.9257 36.4821 45.8919 36.0831 44.7843 35.684C44.7843 35.57 44.7105 35.456 44.6366 35.342L36.5882 26.3925L57.7062 1.93811L63.6133 5.1873C67.9698 7.63844 69.0774 12.2557 66.1239 15.6759Z" fill="black"/>
<path d="M19.5078 51.926C19.5078 52.3755 20.0317 52.7688 20.6304 52.7688C21.2291 52.7688 21.753 52.3755 21.753 51.926C21.753 46.1949 27.9647 41.5313 35.5983 41.5313C36.1971 41.5313 36.7209 41.138 36.7209 40.6885C36.7209 40.239 36.1971 39.8457 35.5983 39.8457C26.6924 39.8457 19.5078 45.2397 19.5078 51.926Z" fill="black"/>
<path d="M34.4258 63.7022C34.4258 64.1891 34.9497 64.6152 35.5484 64.6152C44.4543 64.6152 51.6389 58.7718 51.6389 51.5283C51.6389 51.0413 51.115 50.6152 50.5163 50.6152C49.9176 50.6152 49.3937 51.0413 49.3937 51.5283C49.3937 57.737 43.182 62.7891 35.5484 62.7891C34.9497 62.7891 34.4258 63.2152 34.4258 63.7022Z" fill="black"/>
</svg>
