<svg width="70" height="70" viewBox="0 0 70 70" fill="none" xmlns="http://www.w3.org/2000/svg">
<path d="M70 27.0454C70.0012 25.9843 69.806 24.9334 69.4257 23.9537C69.0455 22.9741 68.4879 22.0851 67.785 21.3383C53.7806 3.80628 34.5718 0.334178 34.2667 0.281138C34.2654 0.280328 34.2639 0.279812 34.2624 0.279622V0.281138C32.8796 -0.121624 31.4182 -0.0910737 30.0511 0.369177C28.6839 0.829427 27.4683 1.70012 26.5479 2.87824C25.6276 4.05637 25.0411 5.49263 24.8578 7.01711C24.6745 8.54159 24.902 10.0905 25.5136 11.4806L25.4022 11.665C24.7043 12.8361 23.8477 13.8893 22.8608 14.7899C20.6698 16.7917 16.6705 20.4182 13.0725 23.6748C12.8634 23.6566 12.6472 23.6475 12.4297 23.6475C9.76965 23.6475 7.61251 25.0054 7.61251 26.6784C7.61251 26.6819 7.61302 26.6853 7.61304 26.6888V27.9391C7.6135 28.1406 7.64478 28.3406 7.70561 28.5312C6.44331 29.673 5.63665 30.4022 5.60512 30.4306C5.58251 30.4518 5.5585 30.4746 5.5359 30.4973C3.00034 33.0796 1.23112 36.4069 0.449648 40.0626C-0.33182 43.7183 -0.0908103 47.5401 1.14251 51.0496L4.70101 61.2151C4.70808 61.2332 4.71514 61.2514 4.7222 61.2711C5.01886 62.0364 5.78876 64.3884 5.78311 66.025V67.3086C5.78267 68.0017 6.03155 68.6682 6.47788 69.1693C6.92421 69.6704 7.53357 69.9674 8.17899 69.9985C8.20442 70 8.22843 70 8.25386 70C8.90893 69.9993 9.53697 69.7198 10.0002 69.2229C10.4634 68.726 10.7239 68.0522 10.7246 67.3495V63.9751C10.7536 63.91 10.779 63.8431 10.8008 63.7749L12.9039 57.0588C13.4198 55.4114 14.291 53.9179 15.4466 52.7C16.6023 51.4821 18.0097 50.5741 19.5543 50.05L28.2249 47.1073C28.5787 47.4745 28.8651 47.9095 29.0694 48.39C29.6952 49.7917 29.8054 51.4739 29.8238 52.1543V61.5697C29.8234 62.2631 30.0724 62.93 30.519 63.4314C30.9656 63.9328 31.5753 64.23 32.2211 64.2611C32.2451 64.2626 32.2705 64.2626 32.296 64.2626C32.951 64.2616 33.5789 63.982 34.042 63.4852C34.5052 62.9883 34.7658 62.3147 34.7667 61.6121V53.6803C35.2071 54.0682 35.7594 54.2798 36.3291 54.2789C36.4359 54.2794 36.5425 54.2723 36.6484 54.2577C37.2469 54.1689 37.7949 53.85 38.1907 53.3602C38.5864 52.8705 38.8029 52.2432 38.7999 51.5951V45.4152C38.8282 44.7418 38.9243 44.0736 39.0866 43.4224L59.9617 36.3387L63.7819 34.973L63.7787 34.9717C65.5199 34.6484 67.0988 33.676 68.237 32.2259C69.3752 30.7758 69.9996 28.9411 70 27.0454ZM28.8646 5.79882C29.1383 5.26265 29.459 4.75572 29.8224 4.2849C30.2282 3.8589 30.6963 3.50719 31.2082 3.2438C31.4594 3.11337 31.7185 3.00147 31.9838 2.90889C32.1166 2.86343 32.7791 2.69673 32.8455 2.68916C32.9733 2.67802 33.1018 2.69403 33.2237 2.73627C33.3457 2.7785 33.4587 2.84614 33.5562 2.9353C33.6538 3.02446 33.734 3.13339 33.7922 3.25585C33.8505 3.37832 33.8856 3.5119 33.8956 3.64896C33.9057 3.78602 33.8904 3.92385 33.8507 4.05456C33.811 4.18528 33.7476 4.30631 33.6643 4.41071C33.5809 4.51512 33.4791 4.60085 33.3648 4.66299C33.2505 4.72514 33.1259 4.76248 32.9981 4.77287C32.9797 4.77287 32.5616 4.81985 32.4698 4.83955C32.2782 4.87935 32.0894 4.93302 31.9047 5.00019C31.543 5.13089 31.2034 5.32329 30.8989 5.56999C30.6009 5.816 30.3509 6.12235 30.1629 6.47167C29.9696 6.84506 29.835 7.25005 29.7645 7.67037L29.7617 7.68553C29.7318 7.85656 29.6421 8.00889 29.5111 8.11144C29.38 8.214 29.2174 8.25905 29.0565 8.23739C28.8955 8.21573 28.7483 8.12901 28.645 7.99491C28.5416 7.86082 28.4898 7.68946 28.5002 7.5158C28.5324 6.92581 28.6556 6.34563 28.8646 5.79882ZM28.6782 9.92079C28.8675 9.88017 29.0637 9.90069 29.2421 9.97973C29.4206 10.0588 29.5731 10.1928 29.6806 10.3649C29.788 10.5369 29.8454 10.7393 29.8456 10.9464C29.8458 11.1535 29.7888 11.356 29.6817 11.5283C29.5746 11.7006 29.4223 11.835 29.244 11.9144C29.0658 11.9939 28.8695 12.0148 28.6802 11.9746C28.4908 11.9344 28.3168 11.8349 28.1801 11.6886C28.0435 11.5424 27.9504 11.3559 27.9125 11.1528C27.8619 10.8806 27.9141 10.5979 28.0577 10.3668C28.2012 10.1358 28.4244 9.9754 28.6782 9.92079ZM9.66653 25.7116C10.2421 25.3728 10.8734 25.1572 11.5256 25.0766C12.2933 24.9654 13.0732 24.9967 13.8311 25.169C14.3085 25.2728 14.768 25.4558 15.1929 25.7116C15.676 26.0162 15.9755 26.3859 15.9755 26.6784C15.9755 26.9709 15.676 27.3422 15.1929 27.6453C14.4851 28.0908 13.4793 28.3454 12.4297 28.3454C11.8171 28.3487 11.2072 28.2579 10.6187 28.0756C10.286 27.9747 9.9662 27.8302 9.66653 27.6453C9.47802 27.5299 9.30463 27.3883 9.1509 27.224C9.00164 27.0842 8.90642 26.8896 8.88391 26.6784C8.88391 26.3859 9.18481 26.0162 9.66653 25.7116ZM37.246 51.5951C37.2494 51.838 37.1708 52.074 37.0246 52.2596C36.8784 52.4451 36.6745 52.5676 36.4506 52.6044C36.4104 52.6099 36.3698 52.6124 36.3291 52.612C36.2088 52.6119 36.0897 52.5865 35.9785 52.537C35.8674 52.4876 35.7664 52.4151 35.6814 52.3238C35.5964 52.2324 35.529 52.124 35.483 52.0047C35.4371 51.8854 35.4136 51.7575 35.4137 51.6284V44.6681C35.4137 44.6681 35.2786 43.5983 34.7304 43.2244C34.6099 43.1405 34.4692 43.096 34.3255 43.0965H34.325H34.3246C33.9006 43.0965 33.6283 43.6245 33.4593 44.1766C33.341 44.5804 33.2583 44.9953 33.2123 45.4158L33.2128 45.4156V61.6121C33.2126 61.8729 33.1159 62.1229 32.944 62.3073C32.7721 62.4917 32.5391 62.5954 32.296 62.5956H32.2677C32.0247 62.5808 31.7964 62.4657 31.6305 62.2745C31.4647 62.0833 31.3741 61.8308 31.3777 61.5697V52.1316C31.334 50.313 30.8084 44.5726 25.963 44.5726C25.3362 44.5789 24.7121 44.6613 24.1025 44.8181L17.5619 47.1049C15.9469 47.6704 14.4751 48.6277 13.2609 49.9024C12.0467 51.177 11.1227 52.7348 10.5607 54.4547L9.93492 56.3702C9.43559 58.033 9.17782 59.7682 9.17067 61.5151V67.3495C9.1708 67.4787 9.14717 67.6067 9.10115 67.7261C9.05512 67.8454 8.98759 67.9539 8.90243 68.0453C8.81727 68.1366 8.71615 68.2091 8.60486 68.2584C8.49356 68.3078 8.37428 68.3332 8.25385 68.333H8.2256C7.98299 68.3179 7.75517 68.203 7.58963 68.0121C7.42408 67.8213 7.3336 67.5693 7.33703 67.3086V66.0311C7.34409 63.6867 6.15604 60.6286 6.15604 60.6286L2.59756 50.4631C1.47562 47.2595 1.25753 43.7725 1.97046 40.4368C2.68339 37.1011 4.29581 34.0644 6.6067 31.7051C6.6067 31.7051 7.40556 30.9822 8.67378 29.8355C9.55669 30.5269 10.9108 30.9699 12.4301 30.9699C15.0904 30.9699 17.2471 29.613 17.2471 27.9392V26.6786C17.2471 26.7315 17.2449 26.7832 17.2406 26.8338C17.2447 26.7823 17.2468 26.7305 17.2469 26.6784C17.2469 25.5979 16.3484 24.6508 14.9965 24.1143C18.3318 21.0925 21.8507 17.901 23.868 16.0598C24.8355 15.1755 25.692 14.1604 26.4162 13.0399C27.1163 13.9873 28.0056 14.7542 29.0186 15.2839C29.6967 15.4945 30.3771 15.7269 31.0599 15.981C43.4405 20.5697 56.2463 31.6217 56.4455 31.7945C56.439 31.785 56.4333 31.775 56.4268 31.7655C56.7618 32.2604 57.148 32.713 57.578 33.1146L55.9284 33.6812L50.4883 35.5846L40.8935 38.9428L40.8892 38.9443L40.4019 39.114C37.2488 40.434 37.246 45.4152 37.246 45.4152V51.5951ZM62.5006 33.1203C61.3805 33.1204 60.2856 32.7641 59.3543 32.0966C58.423 31.4291 57.6971 30.4803 57.2685 29.3702C56.8399 28.2601 56.7277 27.0386 56.9462 25.8602C57.1647 24.6817 57.7041 23.5993 58.4961 22.7496C59.2881 21.9 60.2971 21.3214 61.3957 21.087C62.4942 20.8526 63.6329 20.9729 64.6677 21.4328C65.7025 21.8926 66.5869 22.6712 67.2092 23.6703C67.8314 24.6693 68.1636 25.8439 68.1635 27.0454C68.1643 27.8434 68.0183 28.6337 67.734 29.3711C67.4497 30.1085 67.0326 30.7786 66.5066 31.3428C65.9806 31.9071 65.356 32.3545 64.6686 32.6596C63.9812 32.9646 63.2445 33.1211 62.5006 33.1203Z" fill="#FAC564"/>
<path d="M41.3626 31.346V30.0854C41.3626 28.4116 39.2059 27.0547 36.5456 27.0547C33.8852 27.0547 31.7285 28.4116 31.7285 30.0854V31.346C31.7285 33.0198 33.8852 34.3767 36.5456 34.3767C39.2059 34.3767 41.3626 33.0198 41.3626 31.346ZM33.7826 29.1189C34.4899 28.6738 35.497 28.4186 36.5456 28.4186C37.5941 28.4186 38.6012 28.6738 39.3085 29.1189C39.7913 29.4226 40.0912 29.793 40.0912 30.0855C40.0912 30.3779 39.7913 30.7483 39.3085 31.052C38.6012 31.497 37.5941 31.7523 36.5456 31.7523C35.497 31.7523 34.4899 31.497 33.7826 31.052C33.2998 30.7483 32.9999 30.3779 32.9999 30.0855C32.9999 29.793 33.2998 29.4226 33.7826 29.1189Z" fill="#FAC564"/>
<path d="M15.9411 34.5645C13.2807 34.5645 11.124 35.9213 11.124 37.5952V38.8557C11.124 40.5296 13.2807 41.8865 15.9411 41.8865C18.6015 41.8865 20.7581 40.5296 20.7581 38.8557V37.5952C20.7581 35.9213 18.6015 34.5645 15.9411 34.5645ZM13.1781 36.6286C13.8854 36.1836 14.8925 35.9283 15.9411 35.9283C16.9896 35.9283 17.9967 36.1836 18.704 36.6286C19.1868 36.9323 19.4866 37.3027 19.4866 37.5952C19.4866 37.8876 19.1867 38.258 18.704 38.5618C17.9967 39.0068 16.9896 39.262 15.9411 39.262C14.8925 39.262 13.8854 39.0068 13.1781 38.5618C12.6953 38.258 12.3954 37.8876 12.3954 37.5952C12.3954 37.3027 12.6953 36.9323 13.1781 36.6286Z" fill="#FAC564"/>
<path d="M32.495 37.9141H28.9049C28.7203 37.9141 28.5433 37.9927 28.4128 38.1327C28.2823 38.2727 28.209 38.4626 28.209 38.6606C28.209 38.8586 28.2823 39.0485 28.4128 39.1885C28.5433 39.3285 28.7203 39.4072 28.9049 39.4072H32.495C32.6796 39.4072 32.8566 39.3285 32.9871 39.1885C33.1176 39.0485 33.1909 38.8586 33.1909 38.6606C33.1909 38.4626 33.1176 38.2727 32.9871 38.1327C32.8566 37.9927 32.6796 37.9141 32.495 37.9141Z" fill="#FAC564"/>
<path d="M30.6897 21.992C30.6897 20.6669 29.1049 19.7051 26.9216 19.7051C24.7382 19.7051 23.1533 20.6669 23.1533 21.992C23.1533 23.3172 24.7381 24.2789 26.9216 24.2789C29.1051 24.2789 30.6897 23.3172 30.6897 21.992ZM26.9216 22.7858C25.3665 22.7858 24.5723 22.1757 24.5451 21.9935C24.5723 21.8082 25.3663 21.1982 26.9216 21.1982C28.473 21.1982 29.2667 21.8051 29.2977 21.992C29.2666 22.179 28.4727 22.7858 26.9216 22.7858Z" fill="#FAC564"/>
<path d="M10.5196 44.7327C9.68802 44.9092 8.90102 45.2735 8.21089 45.8016C7.50388 46.3032 6.90449 46.9606 6.45254 47.7299C5.81901 48.8854 6.09261 49.6328 6.31214 49.9755C6.62055 50.457 7.14536 50.6932 7.7902 50.6931C8.60806 50.6931 9.61879 50.313 10.625 49.5714C11.3321 49.0698 11.9314 48.4125 12.3834 47.6432C13.0168 46.4877 12.7433 45.7403 12.5238 45.3976C12.3043 45.0548 11.7517 44.5126 10.5196 44.7327ZM9.83695 48.3408C8.55477 49.2858 7.57883 49.2652 7.46003 49.1311C7.38473 48.9619 7.7172 47.9769 8.99896 47.0323C9.91333 46.3584 10.6725 46.1757 11.0761 46.1757C11.1803 46.163 11.2857 46.1866 11.3765 46.2431C11.4496 46.4159 11.1156 47.3984 9.83695 48.3408Z" fill="#FAC564"/>
<path d="M7.21236 40.9019C7.21236 40.497 6.55992 39.6172 5.7551 39.6172C4.95028 39.6172 4.29785 40.497 4.29785 40.9019C4.29785 41.3068 4.95029 41.6349 5.7551 41.6349C6.55991 41.6349 7.21236 41.3067 7.21236 40.9019Z" fill="#FAC564"/>
<path d="M46.4846 33.8127C47.2894 33.8127 47.9419 33.4845 47.9419 33.0796C47.9419 32.6748 47.2894 31.7949 46.4846 31.7949C45.6798 31.7949 45.0273 32.6748 45.0273 33.0796C45.0273 33.4845 45.6798 33.8127 46.4846 33.8127Z" fill="#FAC564"/>
<path d="M23.3381 30.2129C22.5333 30.2129 21.8809 31.0927 21.8809 31.4976C21.8809 31.9024 22.5333 32.2306 23.3381 32.2306C24.1429 32.2306 24.7954 31.9024 24.7954 31.4976C24.7954 31.0927 24.1429 30.2129 23.3381 30.2129Z" fill="#FAC564"/>
</svg>
