<svg width="16" height="15" viewBox="0 0 16 15" fill="none" xmlns="http://www.w3.org/2000/svg">
<path d="M15.928 11.9566L15.8484 11.7316C15.6598 11.2059 15.0415 10.6576 14.4736 10.5132L12.3715 9.97474C11.8015 9.82932 10.9883 10.0249 10.5712 10.4159L9.81047 11.1293C7.04566 10.4287 4.87761 8.39575 4.13152 5.80376L4.89233 5.09037C5.3094 4.6993 5.5179 3.93783 5.36282 3.40332L4.78962 1.43131C4.63454 0.897767 4.04877 0.31807 3.48922 0.143158L3.24926 0.0675086C2.68864 -0.107403 1.8891 0.0694894 1.47207 0.460534L0.334058 1.52859C0.130753 1.71822 0.000816572 2.26059 0.000816572 2.26257C-0.0389859 5.65045 1.37774 8.91451 3.93348 11.311C6.48296 13.7016 9.95094 15.028 13.5535 14.9996C13.5724 14.9996 14.1676 14.8797 14.3709 14.69L15.5089 13.6229C15.9259 13.2319 16.1145 12.4822 15.928 11.9566Z" fill="#FAC564"/>
</svg>
