<svg width="22" height="20" viewBox="0 0 22 20" fill="none" xmlns="http://www.w3.org/2000/svg">
<path d="M0.565931 13.865C2.39727 14.5366 4.26347 14.4429 6.21253 13.5473C4.64036 12.9745 3.83398 11.7988 3.74964 9.95997C4.25766 10.1672 4.74804 10.3128 5.32388 10.2888C3.7637 9.23829 3.22467 7.73152 3.73161 5.65259C4.17097 6.05821 4.60309 6.38048 5.18194 6.5365C4.41264 5.40689 4.22914 4.14986 4.68612 2.7427C4.8971 2.09577 5.24255 1.52393 5.73044 1.02516C6.87912 4.01192 8.86158 6.00968 11.7575 6.99804C11.7848 6.8502 11.8097 6.7343 11.8323 6.61376C12.2343 4.45913 14.0462 2.86842 16.038 2.94945C17.2876 2.99976 18.218 3.60824 18.8171 4.73103C18.911 4.90171 19.0172 4.96144 19.2023 4.95576C19.945 4.93769 20.6806 4.82408 21.4261 4.60707C20.9116 5.42909 20.2099 5.96697 19.3642 6.35396C19.5265 6.36282 19.6898 6.3801 19.8533 6.38518C20.0247 6.38823 20.1973 6.3875 20.3722 6.37921C20.5392 6.37297 20.705 6.3583 20.8721 6.33986C21.0426 6.32229 21.2153 6.29716 21.406 6.30919C21.2756 6.42257 21.1463 6.54436 21.0102 6.65223C20.4444 7.10663 19.8384 7.47744 19.2045 7.78408C19.1395 7.81638 19.065 7.90328 19.0474 7.97212C18.6602 9.31968 18.0863 10.5829 17.3032 11.7519C15.7623 14.0556 13.7975 15.7377 11.3418 16.6709C10.1287 17.1311 8.89977 17.3224 7.65675 17.2982C6.42509 17.2728 5.25434 17.0267 4.14206 16.5796C3.02638 16.1316 2.03969 15.468 1.18411 14.6056C0.956675 14.3804 0.74527 14.139 0.528132 13.9043C0.542997 13.8918 0.554464 13.8784 0.565931 13.865Z" fill="white"/>
</svg>
